<svg width="131.49313964843748px" height="121.39999999999999px" xmlns="http://www.w3.org/2000/svg" viewBox="184.25343017578126 14.300000000000004 131.49313964843748 121.39999999999999" style="background:#444" preserveAspectRatio="xMidYMid"><defs><filter id="editing-crystal" x="-100%" y="-100%" width="300%" height="300%"><feMorphology operator="dilate" radius="2" in="SourceGraphic" result="border"></feMorphology><feFlood flood-color="#fff" result="black"></feFlood><feMorphology operator="dilate" radius="2" in="SourceGraphic" result="erode"></feMorphology><feGaussianBlur in="erode" stdDeviation="4" result="blur"></feGaussianBlur><feOffset in="blur" dx="2" dy="2" result="offset"></feOffset><feComposite operator="atop" in="offset" in2="black" result="merge"></feComposite><feComposite operator="in" in="merge" in2="SourceGraphic" result="inner-shadow"></feComposite><feGaussianBlur in="SourceGraphic" stdDeviation="2.5" result="shadow1"></feGaussianBlur><feOffset in="shadow1" dx="0" dy="5" result="shadow"></feOffset><feSpecularLighting in="SourceGraphic" result="specular" surfaceScale="1.5" specularConstant="100" specularExponent="10" lighting-color="#fff"><fePointLight x="250" y="-300" z="-400"></fePointLight></feSpecularLighting><feGaussianBlur in="specular" stdDeviation="1" result="specular2"></feGaussianBlur><feComposite operator="in" in="specular2" in2="SourceAlpha" result="specular3"></feComposite><feMerge result="merge"><feMergeNode in="border"></feMergeNode><feMergeNode in="inner-shadow"></feMergeNode><feMergeNode in="specular3"></feMergeNode></feMerge><feComponentTransfer in="merge" result="final"><feFuncA type="linear" slope="0.9" intercept="0"></feFuncA></feComponentTransfer><feMerge><feMergeNode in="shadow"></feMergeNode><feMergeNode in="final"></feMergeNode></feMerge></filter></defs><g filter="url(#editing-crystal)"><g transform="translate(210.3868609368801, 97.30500030517578)"><path d="M30.21-33.92L30.21-33.92L30.21-33.92Q25.02-33.92 21.25-35.65L21.25-35.65L19.20-25.28L31.55-25.28L31.55-25.28Q31.55-21.89 29.86-19.74L29.86-19.74L29.86-19.74Q28.16-17.60 25.09-17.60L25.09-17.60L25.09-17.60Q21.76-17.60 18.69-18.82L18.69-18.82L18.69-18.82Q18.05-19.07 17.98-19.14L17.98-19.14L14.34 0L0.38 0L8.51-42.24L37.06-42.24L37.06-42.24Q37.06-38.34 35.23-36.13L35.23-36.13L35.23-36.13Q33.41-33.92 30.21-33.92ZM48.51 0L34.88 0L42.18-38.91L42.88-42.24L56.58-42.24L48.51 0ZM74.50-3.78L74.50-3.78L74.50-3.78Q72.77 1.28 66.11 1.28L66.11 1.28L66.11 1.28Q61.18 1.28 57.79-4.61L57.79-4.61L57.79-4.61Q54.34-10.50 53.70-20.10L53.70-20.10L53.70-20.10Q60.74-32.96 65.60-38.27L65.60-38.27L65.60-38.27Q70.27-43.33 75.14-43.33L75.14-43.33L75.14-43.33Q77.76-43.33 79.65-41.92L79.65-41.92L79.65-41.92Q81.54-40.51 81.98-38.27L81.98-38.27L81.98-38.27Q79.81-37.38 78.78-36.67L78.78-36.67L78.78-36.67Q76.22-34.75 72.77-30.46L72.77-30.46L66.94-23.49L66.94-23.49Q65.54-21.82 64.96-21.06L64.96-21.06L64.96-21.06Q65.92-15.68 68.80-10.37L68.80-10.37L68.80-10.37Q71.55-5.31 74.50-3.78Z" fill="#000000" stroke="#88e0eb" stroke-width="1.5"></path></g></g><style>text {
  font-size: 64px;
  font-family: Arial Black;
  dominant-baseline: central;
  text-anchor: middle;
}</style></svg>